<?xml version="1.0" encoding="UTF-8"?>
<svg version="1.1" viewBox="0 0 2048 647" width="550" height="174" xmlns="http://www.w3.org/2000/svg">
<path transform="translate(0)" d="m0 0h2048v647h-2048z" fill="#FEFEFE"/>
<path transform="translate(1503,55)" d="m0 0h29l19 3 16 5 16 7 11 7 13 10 16 16 9 14 5 13 2 10v18l-4 17-4 9-8 14-9 11-9 10-11 11-11 9-20 15-21 13-18 10-23 12-27 13-28 12-29 11-27 10-37 12-3 1 1-9-5-4-6-1-7 4-6 5-7 8-3 6-42 11-41 9-14 3 3-10 13-29 16-33 15-28 12-21 16-26 10-15 11-16 16-22 14-18 11-13 12-14 26-26 11-9 13-10 15-10 16-9 21-9 18-5z" fill="#FEFEFE"/>
<path transform="translate(780,224)" d="m0 0h19l15 2 12 4 6 4 4-2 3-2 5 1-4 10 3 8 1 6v15l-3 16-6 14-9 13-11 12-12 12-17 12-5 2h-8l-4-2v-10l5-18 13-25 18-27 11-14 7-8-3-5-9-6-13-3h-26l-20 4-20 6-20 8-25 12-23 13-15 10-20 14-18 14-14 12-12 11-17 17-9 11-12 16-10 17-8 19-3 12v22l4 12 6 10 8 9 10 7 12 6 15 5 16 3 10 1h30l29-3 34-7 29-9 24-9 24-11 16-8 16-10 5-4 7-8 19-19 8-7 11-9 14-10 15-9 14-6 8-2h10l14 3h9l8-4h5l1 1-1 7-13 20-15 23-10 16-10 17-10 21-12 30-12 36-5 20-1 6v17l3 8 5 5 8 4 4 1h18l14-3 15-6 17-10 11-8 16-12 15-13 11-11 7-8 18-21h2l-1 7-10 13-11 13-11 12-13 13-14 11-13 10-17 11-15 7-11 3h-23l-12-4-11-6-6-7-4-10v-19l3-18 10-36 11-31 9-20 12-24 9-15 4-8-3 1-2 4-12 13-16 15-4 4h-2v2l-8 7-14 12-13 10-16 12-20 13-9 4h-6l-5-5-1-3v-13l5-16 5-9-16 9-23 11-25 10-24 8-24 6-25 4-12 1h-34l-21-3-19-5-17-7-14-8-12-9-8-8-7-11-5-12-1-5v-21l4-17 7-16 11-18 11-14 14-15 19-19 11-9 17-14 16-11 15-10 20-12 26-14 23-11 28-11 26-7z" fill="#050505"/>
<path transform="translate(1510,47)" d="m0 0h18l22 3 17 5 16 7 12 7 12 9 10 9 11 11 8 11 8 16 4 12 2 12v15l-3 14-5 13-6 11-10 13-11 12-7 7-11 9-10 8-13 9-21 13-32 17-28 13-34 14-48 18-69 23-10 7-8 1-5-2-62 15-38 8-2 1-7 22-6 28-2 17v17l3 10 4 6v2l4 2 5 2h13l9-3 16-8 11-8 6-8 16-36 16-33 6-15 4-3h9l4 5v7l-5 12-7 12-7 14-12 22-11 24-5 11-2 6v7l1 4 9 1 12-3 12-5 12-7 14-24 10-16 7-11 14-20 12-16 9-10 5-3h6l-2 5-11 13-10 15-8 13-11 20-4 12 5-2 10-8 13-11 11-10 14-11 15-12 12-8 19-12 6-3 9-1 5 3-1 6-12 16-12 18-15 25-8 16-8 17-10 25-6 20-2 12v19l4 10 3 5 9 5 3 1h16l14-5 13-7 12-8 13-10 14-12 13-13 8-11 6-12 1-9-3-3-7-3-1-2 3-3 5-2 5 1 3 3 1 7-5 16-4 9-7 11-12 14-19 19-13 10-17 10-21 8-18 4h-12l-11-4-5-4-6-10-2-5-1-6v-19l4-20 8-22 12-25 12-23 15-25 13-19v-6l-6-2-8 4-12 9-13 11-8 7-12 11-17 17-7 8-11 12-7 8-8 4-9 3-9-1-13 8-11 5-9-1-9-4-7-7-3-7v-11l1-5-7 6-10 7-14 8-12 4-5 1h-10l-10-3-10-9-5-11-1-4v-36l5-23 6-20 13-32 24-51 10-19 11-21 13-23 13-22 14-22 15-22 8-11 11-14 9-11 12-14 12-13 8-7 14-14 14-11 13-10 21-13 23-11 25-8 21-4zm-7 8-18 3-19 6-18 8-16 9-17 12-16 13-12 11-22 22-9 11-12 14-21 28-14 20-10 15-12 19-12 20-9 16-11 20-8 16-14 29-12 28-1 5 38-8 56-14 4-2 3-6 9-10 7-5 6-1 6 3 2 2-1 9 36-12 20-7 27-10 32-13 30-14 26-13 23-13 22-14 18-14 14-12 14-14 13-17 7-12 5-15 2-10v-18l-4-16-7-14-8-10-15-15-17-12-16-8-13-5-12-3-15-2z" fill="#050505"/>
<path transform="translate(1613,372)" d="m0 0 5 1 1 4-10 16-21 32-14 23-13 25-12 30-14 41-6 26v15l3 9 8 7 9 3h19l16-4 16-7 15-9 11-8 13-10 14-12 19-19 9-11 9-10 4-2-1 6-10 13-9 11-12 13-16 16-11 9-19 14-13 8-14 7-12 3h-23l-12-4-11-7-6-7-3-7-1-5v-11l3-20 6-25 12-36 6-16 16-32 15-27-5 4-9 10-14 14-8 7-12 11-11 9-13 11-19 14-17 11-10 5-9-1-3-5-1-5v-7l4-15 8-15 8-12h2l2-4 9-10 2-3h2l2-4 14-14 11-9 12-10 15-10 19-10 9-3 5-1h9l12 2 7 2 12-4z" fill="#050505"/>
<path transform="translate(1134,400)" d="m0 0h11l12 3 4 4v10l-5 12-8 14-12 14-7 8-17 16-12 10-18 12-17 8-12 3-9-1-2-3 1-8 5-12 13-25 10-15 9-12 8-10 11-12 8-8 12-6z" fill="#FEFEFE"/>
<path transform="translate(1114,382)" d="m0 0h13l13 7 5 1 49 1 2 1-1 4-1 1-12 1-6 1v14l-4 12-7 13-10 13-19 19-11 9-16 13-17 11-11 6-16 7-12 3h-10l-7-4-4-7v-11l6-18 8-16 7-12 8-12 13-17 8-10-1-5-9-7 1-5 5-3 21-1zm20 18-15 2-12 6-16 16-11 14-10 13-11 18-12 23-4 10-1 8 2 3 9 1 12-3 19-9 17-12 11-9 9-9 8-7 11-12 10-13 9-17 2-6v-10l-6-5-10-2z" fill="#050505"/>
<path transform="translate(1558,385)" d="m0 0h13l6 3 5 5-1 6-13 15-27 30-17 16-10 9-11 9-17 12-9 3-5-6 1-11 8-16 7-11 14-19 12-13 7-8 10-9 11-8 12-6z" fill="#FEFEFE"/>
<path transform="translate(897,385)" d="m0 0h12l8 4 4 5-2 6-9 10-9 11-7 7-7 8-23 23-8 7-13 11-17 12-9 4-4-2-2-3v-8l3-9 7-14 11-16 12-13 10-13 14-14 14-10 11-5z" fill="#FEFEFE"/>
<path transform="translate(1047,384)" d="m0 0h13l7 3-1 4-5 6-7 1-6-1-15 6-15 9-16 12-15 14-14 14-9 11-13 17-18 27-19 10h-3l1-6 12-19 18-30 9-16 10-21 3-10-1-8 23-13 7-4h5v6l-7 11-10 13-11 17-6 11 1 3 8-7 12-13 8-7 12-11 26-20z" fill="#050505"/>
<path transform="translate(825,254)" d="m0 0h2l2 5 1 6v10l-3 14-5 12-9 15-12 14-14 11-5 3h-2v-7l6-18 9-20 11-20 14-19z" fill="#FEFEFE"/>
</svg>
